<svg version="1" xmlns="http://www.w3.org/2000/svg" width="682.667" height="682.667" viewBox="0 0 512.000000 512.000000"><path d="M189.3 78.4c-.4.8-1.5 1.6-2.3 1.8-.8.2-2.1 1.5-2.9 3-.7 1.5-1.8 2.5-2.4 2.1-.6-.4-.8 0-.4 1 .3.8-.1 2.1-.9 2.7-.8.7-1.4 1.8-1.4 2.5 0 .6-.9 2.2-2 3.5-1.1 1.3-2 2.9-2 3.7 0 .8-.4 1.1-1 .8-.5-.3-1 .3-1 1.4 0 1.1-.8 2.8-1.8 3.8s-3 4.1-4.4 7c-1.4 2.9-2.8 4.9-3.2 4.6-.6-.6-.9 1.2-.3 2.1.1.2-.6 1.3-1.6 2.3-.9 1.1-1.4 2.3-1 2.6.3.4.1.7-.6.7s-.9.4-.6 1c.3.5-.1 1-.9 1-.9 0-1.6.4-1.6.8s-10 .8-22.3.8h-22.3l.1-4.3c.1-2.3-.2-4-.7-3.7-.7.5-1.2-1-.9-2.8 0-.4-.7-.4-1.6-.1-.9.4-1.4.2-1.1-.3.4-.5-12-.9-31-.9-34.2 0-32.7-.2-36 5.3-1.4 2.5-1.6 3.5-.3 2.8.4-.3.6.5.4 1.7-.4 2.2-.8 2.3-12.4 2.5-6.5.1-12.5.3-13.3.4-1.8.2-2.8 3.6-1.4 4.4.6.4.5 1-.3 1.6-1.1.8-1 .9.3.5 1.9-.6 4.3 1.7 3.4 3.2-.4.6.2.8 1.3.6 1.4-.2 1.8.1 1.4 1.1-.3.9.1 1.4 1.3 1.4.9 0 1.5.3 1.1.6-.3.3 1.9 3.1 4.9 6 3.1 3.1 5.2 6 4.8 6.6-.4.7-.3.8.5.4.6-.4 1.4 0 1.7.8.3.9 1.1 1.3 1.7.9.6-.4.8 0 .4 1.1-.4 1-.3 1.5.3 1.1.6-.3 1 .2 1.1 1.2 0 1.1.3 1.3.6.5.2-.6.9-1 1.3-.7.5.3.7 1.2.3 2-.4 1.1-.1 1.3 1.1.9 1.2-.5 1.5-.2 1 1-.4 1-.1 1.6.9 1.6.8 0 2.1.8 2.8 1.7 1.3 1.7 1.3 1.7-.6.3s-1.9-1.4-.6.2c.7 1 1.9 1.8 2.7 1.8.7 0 1.6.5 2 1.2.5.7.3.8-.7.2-.8-.4 3.8 4.4 10.1 10.9 13.8 13.9 14.1 14.3 13.2 15.3-.4.4.1.4 1.1.1 1.1-.4 1.7-.1 1.7.9 0 .8.5 1.2 1 .9.6-.3 1 .3 1 1.4 0 1.2.4 2.1.9 2.1 1.4 0 7.1 5.7 7.1 7.1 0 .7.3 1 .6.6.7-.7 7 5.3 6.6 6.4-.1.5.2 1 .8 1 .5.1 1.6.2 2.3.3 1.6.2 2.7-1.4 2.7-4.1 0-1.3.5-2.2 1.1-2 .6.1 1.3-1.1 1.5-2.7.1-1.6.8-3.2 1.4-3.6.7-.4 1.2-1 1.1-1.3-.1-1.6 2.2-6.7 3-6.7.5 0 .9-.6.9-1.4 0-.7.7-1.9 1.5-2.6.8-.7 1.2-1.6.9-2.1-.3-.5 0-.9.5-.9.6 0 1-.3.9-.8-.5-1.2 2.8-5.2 3.6-4.4.4.4.6.2.5-.3-.5-1.7 1.1-5.3 2.6-5.9.8-.3 1.5-1.2 1.5-1.9 0-.8 1-2.2 2.3-3.1 1.2-.9 1.5-1.4.7-1.1-.8.4-.7 0 .4-.9 1-.8 2.4-1.2 3-.9.6.4.4-.2-.4-1.2-1.4-1.7-1.3-1.8.3-1.2 1.1.4 1.6.3 1.2-.3-.3-.6 2.8-4.4 6.9-8.6 4.2-4.2 7.6-8 7.6-8.6 0-.5.4-.7.8-.4.5.3 2.2-1 3.8-2.8 1.6-1.8 3.5-3.1 4.2-2.8.7.2 1.6-.5 1.9-1.7.3-1.2 1.2-2.1 1.9-2.1.8 0 1.7-.7 2-1.5.4-.8 1-1.2 1.5-.9.5.3.9 0 .9-.7s.3-1 .6-.6c.3.3 1.4-.3 2.5-1.4 1.1-1.1 2.4-1.7 2.9-1.4.6.4 1-.1 1-1s.5-1.3 1-1c.6.3 1 .1 1-.5s.4-.9.9-.6c.5.3 1.2-.1 1.5-1 .3-.8 1-1.3 1.5-1 .5.3 1.2-.2 1.5-1.1.6-1.5.8-1.5 1.6-.3.6.8 1 1 1 .4s2-2.1 4.5-3.4c2.5-1.3 4.5-2.8 4.5-3.4 0-.6.5-.4 1 .4.9 1.3 1.2 1.3 2.1-.3.6-.9 1.4-1.5 2-1.2.5.4.9.2.9-.4 0-.5.9-.8 2-.6 1.1.2 1.9-.1 1.7-.8-.1-.7.4-1.1 1.2-.9.7.1 1.9-.2 2.5-.7.7-.6 2.1-1.2 3.2-1.4 1-.2 2.6-.7 3.4-1 .8-.4 2.6-.8 4-.9 1.4-.2 3.1-.8 3.8-1.5.7-.6 2.1-1 3.2-.8 1.1.2 2 0 2-.4s1-.7 2.3-.6c1.2.1 2.7 0 3.2-.4 1-.6 2.2-.8 6.5-1.3 1.4-.2 2.8-.7 3.2-1.3.5-.6.8-.5.8.3 0 .7.5 1 1.1.7 1.1-.8 6-1.3 12.2-1.4 2.8-.1 3.6-.4 3.1-1.4-.6-.8-.3-.8.9.2 1 .8 2.4 1 3.4.6 2.8-1.2 4.4-1.4 3.7-.4-.8 1.4 2 1.1 3.5-.4 1.1-1 1.3-1 .7 0-.5 1 .8 1.3 5.1 1.4 8.2.2 11 .5 17.5 1.8 3.2.7 6.2 1 6.8.6.5-.3 1-.2 1 .2 0 .8 1.5 1.2 5.8 1.5.6.1 1.2.5 1.2 1s.4.7.9.3c.5-.3 1.2-.1 1.6.4.3.5 1.4.8 2.5.6 1.1-.2 2 .1 2 .6 0 .6.6.9 1.3.6.6-.2 2.1.3 3.1 1.2 1.6 1.3 1.8 1.3 1.1.1-.6-1.2-.5-1.3.6-.3.7.7 2.1 1.3 3.1 1.3s1.8.5 1.8 1.1c0 .6.7.9 1.5.5.8-.3 1.5-.1 1.5.5s.5.7 1 .4c.6-.3 1-.1 1 .5s.4.9.9.6c.4-.3 1.7.1 2.7.9 1 .8 2.7 1.5 3.7 1.5.9 0 1.7.5 1.7 1.1 0 .5.4.8.9.4.5-.3 2.1.6 3.5 2s2.6 2.1 2.6 1.5c0-.6 1-.2 2.2 1 1.2 1.1 2.8 2 3.5 2 .7 0 1.3.5 1.3 1.1 0 .5.4.8.9.4.5-.3 2.1.6 3.4 1.9 1.4 1.4 2.8 2.2 3.1 1.9.3-.4.6.2.6 1.3 0 1.3.3 1.5.8.7.6-.9 1.2-.7 2.2.7.8 1.1 2.4 2 3.5 2 1.6 0 1.7.2.5 1-1.3.8-1.3 1 .2 1 .9 0 2.2.8 2.7 1.7.6 1 1.1 1.4 1.1.9 0-.5 1.3.5 2.9 2.2 1.6 1.6 3.2 2.8 3.5 2.4.3-.3.6.2.6 1.1 0 1 .7 1.7 1.6 1.7.8 0 1.2.4.9 1-.3.5.3 1 1.5 1s1.9.4 1.5.9c-.6 1.1 1.7.8 5.8-.8 1.6-.6 3.2-.9 3.7-.6.5.3 1.1.1 1.5-.5.4-.6 1.1-.8 1.6-.5.5.4.9.2.9-.4 0-.6.7-.8 1.5-.5.9.4 1.5.1 1.5-.7 0-.9.3-1 1.1-.2s1.8.7 3.7-.3c1.4-.7 2.9-1.1 3.4-.8.4.3.8.2.8-.3 0-.4 1.4-.9 3.2-1 1.7-.1 3.4-.6 3.7-1.1.3-.4 1.3-.7 2.1-.7.8.1 1.9-.1 2.5-.4.5-.3 1.6-.6 2.5-.7.8-.1 2.9-.5 4.5-.9 1.7-.4 3.6-.8 4.3-.8.6 0 1.2-.4 1.2-.8s.9-.6 2-.4c1.1.2 2 0 2-.5s.9-.7 2-.5c1.1.2 2-.2 2-.8 0-.8.3-.8.9.2.6.9 1.1 1 1.5.2.4-.6 1.6-1.1 2.7-1.1 1.3 0 1.8-.4 1.3-1.3s-.4-.9.6 0c.9.8 2 .8 4.6-.3 1.8-.8 3.7-1.4 4.1-1.3.5.1 1 0 1.3-.1.3-.1 1.4-.4 2.5-.6 1.1-.3 2.5-.6 3-.7.6-.1 1.6-.7 2.4-1.1 1-.7 1.2-.5.6.3-.6 1-.3 1.1 1.3.2 1.1-.6 3-1.1 4.2-1.1 1.2 0 1.9-.4 1.6-.9-.3-.4.6-.7 1.9-.5 1.4.1 2.7-.1 3-.6.2-.4 1.6-.6 2.9-.5 2.7.3 5-1.7 4.4-3.7-.3-.9-14.5-1.2-62-1.2l-61.6-.1-1.9-2.5c-3.2-4.4-4.4-7-3.7-8.2.4-.7.3-.8-.4-.4-1.1.6-3.8-3.1-3.4-4.7.1-.4-.2-.7-.7-.7-1 0-2.7-3.9-2.3-5.3.1-.5-.2-.6-.8-.2-.6.3-1-.3-1-1.6 0-1.2-.3-1.9-.7-1.5-.4.3-1.5-1.2-2.5-3.4s-2.4-4-3-4c-.7 0-.6-.6.2-1.6 1-1.1 1-1.4.1-1.2-.6.2-1.9-1.1-2.9-2.7-.9-1.7-2-3.2-2.4-3.3-.5-.2-.8-1.2-.8-2.3 0-1.1-.7-2.2-1.5-2.5-.8-.4-1.3-1-1-1.4.3-.4-.1-.8-.8-.7-.6 0-2.5-.1-4.2-.2-3-.3-3-.3-.5-1.1 1.6-.5-1.6-.8-8.7-.9-6.9-.1-11.3.3-11.3.9 0 .5-.8 1-1.7 1-1.5 0-1.6-.2-.3-1 1-.6-8.5-1-27.8-1s-29.1.3-28.7 1c.3.5.1 1-.4 1-.6 0-1.1-.5-1.1-1.1 0-.8-.6-.7-1.7.2-1.1 1-1.4 1-.9.1.6-.9-4.4-1.2-23.8-1.2-20.1 0-24.6.3-25.3 1.4zm11.4.2c-.3.3-1.2.4-1.9.1-.8-.3-.5-.6.6-.6 1.1-.1 1.7.2 1.3.5zm4 0c-.3.3-1.2.4-1.9.1-.8-.3-.5-.6.6-.6 1.1-.1 1.7.2 1.3.5zm4 0c-.3.3-1.2.4-1.9.1-.8-.3-.5-.6.6-.6 1.1-.1 1.7.2 1.3.5zm8 0c-.3.3-1.2.4-1.9.1-.8-.3-.5-.6.6-.6 1.1-.1 1.7.2 1.3.5zm4 0c-.3.3-1.2.4-1.9.1-.8-.3-.5-.6.6-.6 1.1-.1 1.7.2 1.3.5zm15.6.1c-.7.2-1.9.2-2.5 0-.7-.3-.2-.5 1.2-.5s1.9.2 1.3.5zm12 0c-.7.2-1.9.2-2.5 0-.7-.3-.2-.5 1.2-.5s1.9.2 1.3.5zm4.4-.1c-.3.3-1.2.4-1.9.1-.8-.3-.5-.6.6-.6 1.1-.1 1.7.2 1.3.5zm9 0c-.3.3-1.2.4-1.9.1-.8-.3-.5-.6.6-.6 1.1-.1 1.7.2 1.3.5zm4 0c-.3.3-1.2.4-1.9.1-.8-.3-.5-.6.6-.6 1.1-.1 1.7.2 1.3.5zm4 0c-.3.3-1.2.4-1.9.1-.8-.3-.5-.6.6-.6 1.1-.1 1.7.2 1.3.5zm7 0c-.3.3-1.2.4-1.9.1-.8-.3-.5-.6.6-.6 1.1-.1 1.7.2 1.3.5zm4 0c-.3.3-1.2.4-1.9.1-.8-.3-.5-.6.6-.6 1.1-.1 1.7.2 1.3.5zm8 0c-.3.3-1.2.4-1.9.1-.8-.3-.5-.6.6-.6 1.1-.1 1.7.2 1.3.5zm4 0c-.3.3-1.2.4-1.9.1-.8-.3-.5-.6.6-.6 1.1-.1 1.7.2 1.3.5zm13 0c-.3.3-1.2.4-1.9.1-.8-.3-.5-.6.6-.6 1.1-.1 1.7.2 1.3.5zm4 0c-.3.3-1.2.4-1.9.1-.8-.3-.5-.6.6-.6 1.1-.1 1.7.2 1.3.5zm4 0c-.3.3-1.2.4-1.9.1-.8-.3-.5-.6.6-.6 1.1-.1 1.7.2 1.3.5zm4 0c-.3.3-1.2.4-1.9.1-.8-.3-.5-.6.6-.6 1.1-.1 1.7.2 1.3.5z"/><path d="M246 119.9c0 .3-1.5.7-3.2.8-4.3.2-14.2 1.2-14.8 1.4-.3.1-.8.1-1.2 0-.5 0-.8.4-.8 1.1 0 .6-.3.8-.6.5-1-1-4.6 1.3-4.1 2.6.2.7 0 2.3-.6 3.7-.5 1.4-1 3.2-1.1 4-.6 4.3-1.9 9-2.5 9-.4 0-.7 1-.6 2.2.1 1.3 0 2.7-.4 3.3-.6 1.2-.8 1.8-1.7 6.5-.3 1.9-.9 3.7-1.3 4-.5.3-.8 1.2-.9 2-.3 4.5-1 7.4-2.1 7.8-.9.3-.9.7 0 1.8.7.8.7 1.4.2 1.4-1 0-2.8 6.9-2.6 9.7 0 .7-.3 1.3-.9 1.3-.5 0-.6.4-.3 1 .3.5.3 1.6-.2 2.2-.4.7-.9 2-1 2.8-.5 2-1.1 6.3-1.2 7.3-.1.5-.7.5-1.3.1-1-.6-1-.5-.1.7.8.9.9 2 .3 2.9-.6.8-1 2.6-1 3.9 0 2 .3 2.2 2.8 1.6 1.5-.4 3.3-.8 4-.8.6 0 1.2-.4 1.2-.8 0-.5.7-.6 1.5-.3.8.4 1.5.2 1.5-.3s.7-1 1.5-1.1c.8-.1 2.2-.3 3-.4.8-.1 1.5-.5 1.5-.9s.9-.6 2-.4c1.1.2 2.6-.2 3.4-1 .7-.8 1.6-1.1 2-.8.3.3 1.2 0 2.1-.7.8-.7 1.5-.9 1.5-.5s.6.3 1.3-.2c.6-.5 3.8-1.6 7-2.3 3.1-.7 5.7-1.7 5.7-2.2 0-.4.5-.8 1.1-.8.5 0 .7.6.3 1.2-.5.8-.1.7 1-.2 1.7-1.4 3.1-1.8 6.9-2.2.9-.1 1.7-.6 1.7-1.1 0-.4.6-.7 1.3-.5.6.1 2.3-.4 3.6-1.1 1.7-.9 2.1-1 1.6-.1-.4.7.4.4 1.9-.5 1.4-1 2.6-1.5 2.6-1.2 0 .3 1.5 0 3.3-.7 1.7-.7 3.8-1.1 4.5-.9.6.3 1.2 0 1.2-.5 0-.8 3.3-1.8 7.8-2.4.6-.1 1.2-.5 1.2-1s.5-.6 1-.3c.6.3 1.6.3 2.3-.2 1.3-.8 1.4-.8 6.1-1.8 1.6-.3 3.9-1.1 5-1.7 1.2-.6 2.1-1 2.1-.9 0 .2 2-.2 4.5-.9s5.1-1.3 5.8-1.3c.6 0 1.2-.4 1.2-.9s.5-.6 1-.3c.6.4 1.7.1 2.5-.5.8-.7 1.5-1 1.5-.7 0 .3 2.3-.1 5.2-.9 2.8-.9 5.9-1.7 6.7-1.9.9-.2 2.9-.8 4.5-1.4 1.6-.7 3.1-.9 3.4-.6.3.2 1 .1 1.6-.4.6-.6 2.3-1.2 3.6-1.4 1.4-.2 3.2-.7 4-1 1.5-.6 6.1-1.7 9-2 3-.4 3.8-2 2.3-4.4-.9-1.3-2.2-2.3-3-2.3-.8 0-1.2-.4-.8-.9.3-.5-1.3-2-3.5-3.2-2.2-1.3-4-2.6-4-3.1 0-.4-.6-.8-1.3-.8-.7 0-2.3-.9-3.4-2-1.2-1.1-4-2.7-6.2-3.7-2.3-1-4.1-2.1-4.1-2.6 0-.4-.4-.5-1-.2-.5.3-1 .1-1-.4 0-.6-.7-1.1-1.5-1.1s-1.5-.5-1.5-1.1c0-.5-.4-.8-.9-.4-.5.3-1.2.1-1.6-.5-.4-.6-1.1-.8-1.6-.5-.5.4-.9.1-.9-.5s-.4-.8-1-.5c-.5.3-1 .1-1-.5s-.4-.8-1-.5c-.5.3-1 .1-1-.5s-.4-.9-.9-.5c-.5.3-1.6-.1-2.4-.9-.8-.8-1.7-1.2-2.1-.9-.3.3-1.2 0-2.1-.7-.8-.7-1.5-.9-1.5-.5s-.8.1-1.7-.6c-1.3-1.1-1.5-1.1-.9-.1.6 1.1.4 1.1-1 .3-5.9-3.1-8.3-3.8-9.5-2.7-.9.8-1 .8-.4-.3s.4-1.3-.8-.8c-.9.3-1.9.2-2.2-.4-.4-.5-1.1-.7-1.6-.4-.5.4-.9.2-.9-.3s-1.3-.8-3-.6c-1.6.2-3 0-3-.5 0-.4-1-.7-2.2-.6-1.3.1-3.3-.2-4.5-.6-1.6-.6-2.3-.5-2.3.4 0 .8-.4.7-1-.3-.8-1.3-1-1.3-1-.1 0 1.1-.4 1-1.3-.4-1-1.3-1.6-1.5-2.1-.6-.6.9-1.1.9-2.2 0s-1.4-.9-1.4 0c0 .7-.5.9-1.1.5-1.7-1-10.9-1.1-10.9-.1 0 .5-.5.5-1.1.2-1.4-.9-5.9-1.4-5.9-.6zM202 129.7c-.8.2-2.2.7-3 1-.8.4-1.8.5-2.2.5-.5-.1-.8.2-.8.6 0 .5-.6.9-1.2.9-1.8 0-13 5.4-14.6 7-.7.7-2 1.3-2.8 1.3-.8 0-1.4.5-1.4 1.1 0 .5-.4.7-1 .4-.5-.3-1-.1-1 .5s-.4.8-1 .5c-.5-.3-1-.2-1 .4 0 .5-.9 1.3-2 1.6-1.1.4-1.7 1.1-1.4 1.7.5.7 0 .9-1.4.6-1.4-.4-2.2-.1-2.2.6 0 .6-1.4 2-3 3-1.7 1-4.8 3.5-6.9 5.5-2.1 2.1-4.6 4.1-5.6 4.4-.9.4-1.4 1.1-1 1.6.3.6-.4.8-1.6.6-1.8-.4-1.9-.2-.7 1.2 1.1 1.5 1.1 1.6-.4 1-1-.3-1.7-.3-1.5.1.1.4-.7 1.6-1.8 2.8-3.9 4-8.5 9.4-8.5 9.9 0 .2-1 1.5-2.3 2.9-3.4 3.7-4.8 5.6-4.2 5.6.5 0-1.7 2.9-4.3 5.6-.9.9-1 1.4-.2 1.4.6 0 0 1.1-1.4 2.3-1.4 1.3-2.2 2.7-1.8 3.1.4.4-.1 1.2-1.1 1.7-.9.6-1.5 1.4-1.2 2 .4.5.1.9-.6.9s-.9.3-.6.7c.4.3.2 1.2-.4 2-.6.7-.8 1.3-.5 1.3.4 0 0 .7-.8 1.6-.9.8-1.4 1.9-1.1 2.4.3.4-.2 1.1-1.1 1.4-.9.3-1.4 1.2-1.1 1.9.2.6-.6 3.4-1.7 6.2-1.2 2.7-2.1 5.7-2.1 6.6 0 .9 4 5.5 8.8 10.2 4.8 4.7 8.7 9.1 8.7 9.6 0 .6.4 1.1 1 1.1.5 0 7.3 6.3 15.1 14 7.7 7.7 14.2 14 14.4 14 .2 0 1.9 1.6 3.8 3.5s3.2 3.5 2.9 3.5c-1.1 0 4.2 3.4 5.5 3.6 1.4.2 1.4.3 1.8-4.1.1-1.7.5-3.7.8-4.5.9-2 1.9-7 2-9.8.1-1.2.4-2.2.7-2.2.4 0 .8-1.5.9-3.3.2-1.7.3-4 .4-5 .1-.9.4-1.7.7-1.7.7 0 .9-1 1.2-5.5.1-1.4.5-2.5.9-2.5.3 0 .5-1 .5-2.3-.1-1.2.2-3.1.8-4.2.5-1.1 1.1-3 1.3-4.2.3-2.4.9-5.7 1.5-8.3.2-.8.8-2.1 1.2-2.9.7-1.1.6-1.2-.5-.6-1.1.7-1.2.6-.2-.7.7-.8 1.4-2.7 1.5-4.2.1-1.4.5-2.6.9-2.6.3 0 .6-.6.6-1.3.1-3 1.5-10.3 2.3-11.8.5-.9.6-1.9.3-2.3-.3-.3-.2-.6.3-.6s1-.8 1.1-1.8c.1-.9.4-3.1.8-4.7.3-1.7.7-3.8.8-4.8.1-.9.4-1.7.7-1.7.3 0 .6-.8.7-1.8.1-1.8.5-3.8 2.2-9.7.6-2.1.8-4.2.5-4.7-.3-.4 0-.8.6-.8.7 0 1-.6.7-1.3-.2-.6.2-2.7.9-4.5.7-1.7 1-3.2.7-3.2-.3 0-.1-.6.4-1.3.6-.6.9-2 .8-3-.2-.9.1-1.7.6-1.7.6 0 .7-.5.4-1-.3-.6-.3-1 .2-1 .4 0 .8-1.6.9-3.6 0-2 .5-3.9 1-4.2.5-.4 1-1.6 1.1-2.7 0-1.1.8-4.8 1.8-8.3 2-7.5 1.5-8.9-2.5-7.5zM496 140.8c0 .4-.8.8-1.7.9-4.1.3-6.3.8-6.3 1.3 0 .3-1.2.5-2.7.5-1.6-.1-3.3.2-3.9.7-.6.4-3 1-5.4 1.3-2.4.3-4.8.9-5.4 1.2-.6.4-2.2.8-3.6.9-1.4.2-5.2 1-8.5 1.9-3.3.9-7.5 1.8-9.4 2-1.9.2-3.7.8-4 1.2-.3.5-1.7.9-3.1 1-3.4.3-5.3.7-6.7 1.6-.7.5-1.3.6-1.3.3s-1.2-.1-2.7.5c-1.6.6-3.9 1.2-5.3 1.4-3.1.5-6.5 1.3-6.5 1.5 0 .1-.7.3-1.5.5s-2.6.7-4 1c-1.4.4-3.5.8-4.7 1-1.2.2-2.6.6-3.1.9-.9.5-6.8 1.8-8.9 1.9-.7 0-1.3.4-1.3.9s-.6.8-1.2.6c-2-.4-6.8 1.1-6.8 2.1 0 .5.7 1.6 1.5 2.5.8.8 1.5 1.7 1.5 2 0 .6 2.3 3.6 4.6 6 .6.7 1.9 2.7 2.9 4.6 1 1.9 2.4 4 3.1 4.8.8.7 1.4 1.9 1.4 2.7 0 .7.3 1.5.8 1.7 1.1.5 11.4 21.9 10.8 22.5-.3.3.2 1.2 1 2 .8.9 1.3 2.1 1 2.9-.3.7.1 1.8.9 2.4.7.6 1.2 2.2 1 3.5-.1 1.4.3 3 1 3.5.7.6 1.2 2.2 1 3.5-.1 1.4.2 2.5.7 2.5.5 0 .6.4.3 1-.3.5-.2 1 .2 1 .5 0 .9 1.5 1 3.4.1 1.9.4 4 .9 4.7.4.7.9 4 1.1 7.3.2 3.4.8 6.2 1.3 6.4.6.2.6 1 0 2.3-.6 1-.7 1.9-.2 1.9 1 0 .9 27.1-.1 28.7-.5.8-.3 1.3.4 1.3.9 0 .8.4-.1 1.5-.7.8-1.3 3.8-1.5 6.7-.1 2.9-.5 6-.9 6.9-.4.9-.8 3.3-.9 5.3-.2 2-.8 4.1-1.5 4.5-.8.5 4 6 14.3 16.4C444 343 451 350.5 451 351s.9 1.2 2.1 1.5c1.1.4 1.9.9 1.7 1.1-.3.2 2.5 3.5 6.1 7.2 14.7 15.3 25.9 27.1 31.5 33.4 3.4 3.7 6.6 6.4 7.3 6.1 1.1-.4 1.3-24.4 1.3-130.4 0-71.4-.4-129.9-.8-129.9s-1.4.6-2.1 1.2c-1.1 1-1.3 1-.7 0 .4-.6.2-1.2-.3-1.2-.6 0-1.1.4-1.1.8zM11.7 151.7c-.4.3-.7 59.2-.7 130.9v130.2l3.8-.5c2-.2 4.3-.5 5-.5.6-.1 1.2-.4 1.2-.8s1-.6 2.3-.6c1.2.1 3.1-.2 4.1-.7 1-.5 3.3-1 5.1-1.1 1.7-.2 3.6-.5 4.1-.8.5-.4 3-.9 5.4-1.3 2.5-.4 4.7-1 5-1.3.3-.4 1.9-.7 3.5-.7 1.7 0 3.5-.4 4.2-.8.6-.4 2.4-1 4-1.3 4.2-.9 5.8-1.2 5.8-1.4 0-.1.9-.3 2-.5 2.8-.5 6-1.3 6-1.5 0-.2 3.1-.7 7.3-1.2.6-.1 1.2-.5 1.2-.9s1.1-.6 2.5-.4c1.4.1 2.8-.2 3.1-.7.3-.4 1-.6 1.5-.3.5.4.9.2.9-.2 0-.5 1.4-1 3.1-1.1 1.7-.1 3.9-.6 4.8-1.1.9-.5 2.4-.7 3.3-.6 1 .2 2-.1 2.4-.6.3-.5 1-.7 1.5-.4.5.4.9.2.9-.3s1.7-.9 3.7-1c2-.1 3.9-.5 4.2-1 .3-.4 1.3-.7 2.1-.7.8.1 2-.2 2.5-.6.6-.4 1.2-.7 1.5-.7.3.1 1.5-.2 2.8-.6 2.5-.8 2.9-2.8.7-4.6-1.8-1.5-11.8-16-11-16 .3 0-.3-1-1.5-2.2-1.1-1.2-2-2.6-2-3 0-.5-1.1-2.6-2.4-4.7-1.4-2.1-2.2-4.2-1.9-4.5.4-.3.1-.6-.5-.6-.7 0-1.2-.9-1.2-2s-.7-2.3-1.5-2.6c-.8-.4-1.2-1-1-1.5.3-.5-.1-2.2-1-3.9-.8-1.6-1.3-3-1-3 .3 0-.2-1.1-1.1-2.5-.9-1.4-1.4-2.8-1.1-3.2.3-.3-.1-1.2-.9-2.1-.9-.8-1.3-2.3-1.1-3.3.3-1-.1-2.6-.7-3.6-.7-1-1.2-2.7-1.2-3.8.1-1.1-.3-2.3-.8-2.6-.4-.4-.9-2.7-1.1-5.2-.2-2.5-.7-5.2-1.1-5.9-.5-.7-.9-3.1-.9-5.3 0-2.2-.4-4.6-.8-5.3-.5-.7-.3-1.2.5-1.2 1 0 1.1-.2 0-.8-.7-.5-1-1.6-.6-2.5.3-.9.2-1.7-.3-1.7-1.3 0-1.1-7.3.2-8.2.7-.5.6-.8 0-.8-1 0-1.1-4.2-.4-16.3.1-2 .7-3.7 1.3-3.7.6 0 .4-.5-.4-1s-1-1-.5-1c.6 0 1-2.1 1-4.8-.1-2.6.2-5.2.6-5.7.4-.6 1-2.6 1.3-4.5.9-5.5 1.4-7.9 2-8.8.3-.5-6.7-8.2-15.4-17.2-8.8-9-16-16.7-16-17.1 0-.5-.7-.9-1.7-.9-.9 0-1.4-.3-1-.6.3-.3-2.2-3.2-5.5-6.5-3.3-3.2-5.8-5.9-5.6-5.9.2 0-4-4.5-9.3-9.9-5.3-5.5-9.5-10.2-9.1-10.5.3-.3-.3-.6-1.3-.6s-1.6-.2-1.3-.5c.5-.5-11.4-13.5-12.4-13.5-.3 0-.8.3-1.1.7z"/><path d="M367.6 172.2c-.9.5-2.3.7-3.1.4-.8-.3-1.5 0-1.7.6-.2.6-1.8 1.1-3.6 1.2-1.8 0-3.2.3-3.2.6s-1 .6-2.2.7c-1.1.1-2.4.6-2.7 1-.3.5-2.1.8-3.8.8-1.8-.1-3 .1-2.7.4.5.5-12.5 4.2-15.3 4.4-.7 0-1.3.3-1.3.7 0 .3-.9.7-2 .8-1.1.1-2.9.3-4 .4-1.1.1-2 .6-2 1.1 0 .4-.4.5-1 .2-.5-.3-2.2 0-3.7.8s-3.4 1.2-4 1c-.7-.3-1.3-.1-1.3.4s-.8 1-1.7 1.1c-3.2.3-4.8.7-6 1.5-.7.5-1.7.5-2.3.2-.5-.3-1-.1-1 .5s-.4.9-.9.5c-.5-.3-2.1 0-3.4.6-1.8.8-2.4 1.8-2.2 3.4.2 2.5 4.9 7.8 5.9 6.8.3-.4.6.1.6 1s.7 1.7 1.6 1.7c1 0 1.4.6 1.1 1.4-.4.9-.1 1.3.6 1 1.3-.5 11.7 9 11.7 10.7 0 .5.9.9 2.1.9 1.2 0 2.3.8 2.6 2 .3 1.1 1 2 1.5 2s.6.5.2 1.2c-.4.7-.3.8.5.4.6-.4 1.4 0 1.7.8.3.9 1 1.3 1.5 1 .5-.3.9.2.9 1 0 .9.7 1.6 1.5 1.6s1.9.8 2.4 1.8 2.1 2.4 3.5 3.2c1.4.7 2.6 1.9 2.6 2.6 0 .7.9 1.6 2 1.9 1.1.3 2 1.4 2 2.2 0 .9.3 1.4.6 1 .8-.7 7.3 5.6 6.7 6.5-.2.5.6.8 1.9.8 1.6 0 1.9.3 1 .9-1 .6-.8 1 .8 1.4 1.4.4 1.9 1 1.4 1.8-.4.7-.3 1 .4.5.6-.3 2.1.4 3.4 1.6 1.6 1.5 1.7 1.8.3.8-2-1.5-2-1.5-.1.7 1.1 1.3 2.5 2.3 3.3 2.3.8 0 1.1.4.8 1-.3.5-.1 1 .4 1 1.6 0 5.1 3.3 5.1 4.8 0 .7.4 1.1.9.8 1.2-.8 3.4 2.1 2.6 3.3-.3.6 0 .8.8.5.9-.3 2.2.4 3.1 1.8.9 1.2 1.6 1.8 1.7 1.3 0-.6.4 0 .9 1.2.5 1.3 1.5 2.3 2.3 2.3.7 0 1.9 1 2.6 2.3.6 1.2 2.5 3.1 4.2 4.2 1.6 1.1 3.2 2.8 3.5 3.7.3 1 .9 1.8 1.3 1.8 1.1 0 12.1 11.1 12.1 12.2 0 .4.6.8 1.4.8.8 0 1.7.8 2 1.8.4 1.1 1.7 1.9 3.3 2 2.3.2 2.8-.3 3-2.1.2-3 1-7.2 1.3-7.2.1 0 .3-8.4.4-18.8 0-10.3-.2-18.7-.5-18.7s-.5-1.6-.4-3.6c.1-1.9-.2-3.7-.6-4-.4-.2-.6-1.3-.4-2.4.2-1.1-.1-2-.6-2-.6 0-.8-.4-.5-.8.4-.8 0-3-2.6-12.7-.6-2.2-1.1-4.6-1.1-5.3 0-.6-.5-1.2-1-1.2-.6 0-.8-.3-.4-.6.3-.3-.3-2.6-1.4-5.1-1-2.5-1.7-4.9-1.4-5.3.3-.5.1-1.1-.4-1.5-.5-.3-2.2-3.1-3.7-6.3-1.6-3.1-3.2-6-3.7-6.3-.5-.4-.7-1.1-.3-1.7.3-.5-.1-1.2-.9-1.6-.8-.3-1.5-1.2-1.5-2.1 0-.8-.4-1.5-1-1.5-.5 0-1-.7-1-1.5s-.4-1.5-1-1.5c-.5 0-1-.7-1-1.5s-.5-1.5-1.1-1.5c-.5 0-.7-.5-.4-1 .3-.6-.1-1.3-.9-1.6-.9-.3-1.6-1.5-1.6-2.6s-.8-2.2-2-2.5c-1.1-.3-2-1.2-2-1.9 0-.8-.9-1.9-2-2.6-1.1-.7-2-1.8-2-2.4 0-1.8-5.3-3.4-7.4-2.2zM269.8 230.7c-.6.7-1.5 1.3-2.1 1.3-1.9 0-8.5 7.9-9.2 11-.6 2.5-.9 2.9-2.1 1.9-.8-.6-1.4-1.7-1.4-2.4 0-.6-.9-2.2-2-3.5-1.1-1.3-2-2.7-2-3.1 0-.5-2-2-4.3-3.4-3.5-2-5.7-2.5-10.8-2.5-5.7 0-6.9.3-10.2 3.1-3.9 3.2-7.1 8.2-6 9.3.4.3.1.6-.6.6-1.7 0-.3 13 1.7 15.2.8 1 1.2 1.8.8 1.8-.4 0 1.2 2.8 3.6 6.2 4 6 4.9 7.2 7.3 10.1.6.7 2.2 2.8 3.5 4.7 1.3 1.9 3.2 4.4 4.2 5.4 1 1.1 1.8 2.6 1.8 3.3 0 .7.4 1.3.9 1.3 1.3 0 8.2 11.4 10.9 18 2.1 5 2.5 6.5 2.3 7.5-.7 2.9 1.8-1.7 4-7.3 1.3-3.5 3.2-7.2 4.1-8.2.9-1 1.5-2 1.3-2.2-.5-.5 19.2-27 20.8-28 .7-.4.8-.8.2-.8-.5 0-.4-.4.2-.8 2.5-1.6 8-14.2 7.9-18.2-.1-2.2.2-4 .6-4 .4 0 .3-1.1-.2-2.5s-.7-2.5-.5-2.5c.7 0-2.6-5.2-4.5-7.1-3.6-3.6-7-5-12.9-5.3-4.1-.1-6.5.2-7.3 1.1zM101.3 249.7c-.7 2.4-.7 3.3.1 3.3.7 0 .8.3.1.8-.6.4-1 2.2-1 3.9.1 1.8-.1 3.3-.4 3.3-.9 0-.5 28.3.4 30.4.6 1.5.5 1.7-.5 1.1-.9-.6-1.1-.4-.5.5.7 1.2 1.2 3.9 1.8 11 .1 1.4.7 2.8 1.4 3.3.8.5.9 1.7.3 3.8-.7 2.3-.6 3.1.6 3.6 1.2.4 1.2.8.2 2.1-1 1.2-1 1.4 0 .8.8-.5 1.2 0 1.2 1.3 0 1.2.3 2.1.8 2.1.4 0 .8 1.1.8 2.4.1 1.4.9 3.9 1.7 5.6.9 1.7 1.3 3.8 1 4.6-.3.9.1 1.4 1.3 1.4 1.6 0 1.6.2.4 1-1.2.8-1.2 1 .3 1.6.9.3 1.5 1 1.2 1.4-.3.5-.1 1.1.5 1.5.6.4.8 1 .5 1.5-.3.5 0 1.4.7 2.2.7.7 1.4 2 1.6 2.8.2.8.8 1.7 1.3 1.8.5.2.7.8.3 1.3-.3.5 0 .9.5.9.6 0 1.1.9 1.1 2s.5 2 1 2c.6 0 1 .7 1 1.5s.5 1.5 1.1 1.5c.6 0 .9.7.5 1.5-.3.9 0 1.5.9 1.5.8 0 1.5.7 1.5 1.5s.5 1.5 1 1.5c.6 0 1 .6 1 1.4 0 .7 1.1 2.5 2.5 4 1.3 1.4 2.2 2.6 2 2.6-.3 0 .3.9 1.3 1.9 3.3 3.7 4.2 5 4.2 6.2 0 .7.3.9.7.6.3-.4 1.2.1 1.9 1.1 1 1.2 1.3 1.3 1.4.3 0-.8.7-1.1 2-.8 1.1.3 2.3.1 2.6-.4.3-.5.9-.7 1.4-.4 1.4.8 4-.6 3.3-1.9-.4-.6.1-.5 1 .3.9.7 1.7.9 1.7.4 0-.6 1.9-1.4 4.3-1.8 2.3-.4 4.8-1 5.4-1.2.7-.2 2.6-.6 4.3-1 1.6-.3 3-.8 3-1.2 0-.4 1-.8 2.3-.9 3.6-.3 6.2-.8 7.2-1.4.6-.3 2.7-.9 4.7-1.3 2.1-.4 3.6-1 3.4-1.4-.2-.3.6-.7 1.7-.8 5.7-.4 7.7-.9 7.7-1.7 0-.5.3-.6.7-.3.3.4 1.1.2 1.8-.3s2.5-1.1 4.1-1.3c1.7-.2 3.5-.7 4.2-1.1.7-.4 1.7-.4 2.2-.1.6.3 1 .1 1-.6s.3-.9.7-.6c.3.4 1.2.2 2-.4.7-.6 2.2-.9 3.2-.6 1.9.5 3.1-1 3.1-3.6 0-1.3-5.6-7.4-8.8-9.6-1.2-.8-1.9-1.8-1.6-2.3.3-.4 0-.8-.6-.8-1.6 0-4-2.6-3.2-3.4.3-.4-.1-.4-1.1 0-1 .3-1.7.1-1.7-.6 0-1.5-2.6-4.1-3.4-3.3-.3.4-.6-.1-.6-1.1 0-.9-.4-1.4-1-1.1-.5.3-1-.1-1-1s-.4-1.4-.8-1.1c-1 .6-9.2-7-9.2-8.6 0-.6-.3-.9-.6-.5-.4.3-2.8-1.6-5.5-4.4-2.6-2.7-5.3-4.9-5.9-4.9-.7 0-.9-.7-.6-1.6.3-.8.2-1.2-.4-.9-.6.3-1 .1-1-.4 0-.6-.7-1.1-1.6-1.1-.8 0-1.2-.5-.9-1 .3-.6.1-1-.4-1-.6 0-4.4-3.2-8.3-7-4-3.9-7.6-7-8-7-.4 0-.8-.7-.8-1.5s-.4-1.5-1-1.5c-.5 0-6.8-5.9-14-13-7.2-7.2-13.5-13-14-13-.6 0-1-.5-1-1.1 0-1.4-2.6-3.9-4.1-3.9-.7 0-1-.2-.7-.6.7-.7-7.6-9.4-9.1-9.4-.6 0-1.3-1-1.6-2.3-.9-3.6-4.9-2.9-6.2 1zM343.7 266.7c-.5.9-2 7.1-2.2 9.3-.1.8-.5 2.2-.8 3-.4.8-.8 3.1-1 5-.3 1.9-.7 4.2-1 5-.3.8-.8 2.8-1.1 4.5-1.1 5.6-1.7 7.9-2.2 8.7-.3.4.1.8.8.8 1 0 1 .2.1.8-.6.4-1.4 1.9-1.7 3.2-.3 1.4-.8 3.6-1.1 5-.3 1.4-.8 3.2-1 4-.2.8-.4 1.5-.5 1.5-.1 0-.3.9-.5 2-.1 1.1-.6 3.6-1 5.5s-.8 4.1-.8 4.7c0 .7-.3 1.3-.6 1.3-.4 0-.7 1.3-.7 2.9-.1 1.6-.9 4.3-1.7 6-.9 1.7-1.1 3.1-.6 3.1.6 0 .4 1-.2 2.2-.7 1.3-1.2 2.4-1.1 2.5.1.2.1.5.1.8-.1.3-.3.9-.4 1.5-.1.5-.4 1.1-.5 1.2-.1.2-.3 1.4-.5 2.8s-.8 3.9-1.3 5.7c-.6 1.7-.8 3.4-.4 3.7.3.3 0 .6-.5.6-.6 0-1 .8-.8 1.7.1 1 0 2.2-.4 2.8-.3.5-.6 1.4-.8 2-.1.5-.4 2.1-.7 3.4-.3 1.3-.8 2.6-1.1 2.9-.2.3 0 1.1.7 1.9.9 1.1.8 1.3-.1 1.1-1.3-.3-1.9 1.1-2.6 6.2-.1 1.4-.4 2.6-.5 2.7-.1.2-.4.7-.5 1.3-.1.5-.4 1.3-.5 1.7-.1.5-.2 1.1-.1 1.5 0 .4-.4 2-1 3.5s-1.3 4.1-1.6 5.8c-.3 1.6-.8 3.4-1.3 4-.4.5-.6 1.8-.5 2.8.2.9-.1 1.7-.5 1.7-.5 0-.9.8-.9 1.8 0 1.6-.8 5.7-1.1 5.7-.5 0-.9 4.2-.5 5.4.4 1 .9 1 1.9.2.7-.6 1.6-.8 1.9-.4.4.3.7.2.7-.4 0-.6.8-.9 1.9-.6 1.1.3 2.1-.2 2.5-1.2.3-.9 1-1.4 1.5-1 .5.3 3-.6 5.4-1.9 2.4-1.4 4.7-2.2 5.1-1.9.3.4.6.1.6-.5 0-.7.5-1.2 1.1-1.2.6 0 2.3-.9 3.9-2 1.5-1.1 3-1.7 3.3-1.3.4.3.9-.2 1.3-1.1.3-.9 1.3-1.6 2.1-1.6.7 0 2.5-1.1 3.8-2.5 1.4-1.3 2.5-2 2.5-1.4 0 .5 1.8-.9 4-3.1s4-3.7 4-3.2 2.2-1.3 4.9-3.9c2.8-2.7 5.5-4.9 6.2-4.9.7 0 1-.2.7-.5-.3-.3 2-3.1 5.1-6.3 3.1-3.1 5.6-5.9 5.6-6.2 0-.3.6-1.2 1.3-2 .7-.8 2.6-3 4.2-4.9 1.7-1.9 3-3.9 3-4.4 0-.5.9-1.8 2.1-2.8 1.1-1 1.8-2.3 1.4-2.8-.3-.6-.2-1.1.4-1.1.6 0 1.8-1.7 2.7-3.8 1-2 2.6-4.7 3.5-6 1-1.3 1.5-3 1.2-3.8-.3-.8-.1-1.4.4-1.4s1.7-1.9 2.7-4.3c1-2.3 2.1-5.1 2.6-6.2 2.9-7 3.3-10.2 1.4-10.9-.8-.3-1.2-1-.9-1.6.3-.5.2-1-.2-1-1.3 0-11.1-9.8-10.5-10.5.3-.3-.2-.5-1.1-.5-.9 0-1.7-.6-1.7-1.4 0-.8-.9-1.8-2-2.1-1.1-.3-2-1-2-1.5s-1.1-2-2.5-3.4-2.5-2.2-2.5-1.9c0 .8-6-6.1-6-7 0-.4-.5-.7-1-.7-1.3 0-16.6-15.2-16.3-16.2.2-.4-.5-.4-1.4-.1-1 .4-1.4.2-1-.4.4-.6 0-1.4-.9-1.7-.8-.3-1.2-1.1-.8-1.7.4-.8.3-.9-.5-.5-.6.4-1.8 0-2.7-.8-.8-.9-1.2-1.6-.7-1.6 1.3 0-2-2-3.4-2-.6 0-1.4.3-1.6.7zM415.6 335.9c-.9 1-1.3 2.1-.9 2.4.3.4.1.7-.5.7-.7 0-1.2.9-1.2 2s-.4 2-.9 2-.8.8-.7 1.7c0 1.1-.5 1.7-1.3 1.5-.8-.2-1.1.3-.8 1.1.7 2-2.3 7.8-3.7 7-.6-.4-.5 0 .2.9 1.1 1.4 1 1.8-.8 2.8-1.1.6-1.8 1.5-1.5 2 .3.4-.2 1.6-1.1 2.4-.8.9-1.3 1.6-.9 1.6s-.1.7-.9 1.6c-.9.8-1.4 2-1.1 2.5.4.5-.1.9-.9.9-.9 0-1.6.6-1.6 1.3 0 .7-.9 2.3-2 3.5-1.1 1.2-2 2.6-2 3.2 0 .6-.4.9-.9.6-.8-.6-2.5 3-2.2 4.7.1.5-.3.6-.8.3-.5-.4-1.2.3-1.6 1.4-.4 1.1-1 1.8-1.4 1.6-.4-.3-1.3-.1-2.1.5-1.3.7-1.3.9-.1.9.9 0 .6.7-.9 2-1.3 1.1-2 2-1.7 2 .3 0-2 2.6-5.1 5.8-3.1 3.2-6 5.6-6.4 5.4-.5-.2-.8.2-.8.8 0 .6-.4.8-1 .5-.5-.3-1 .2-1 1.1 0 1-.3 1.5-.6 1.2-.3-.3-2 .8-3.8 2.6-1.7 1.8-3.7 3.1-4.4 2.8-.7-.2-1.2.4-1.2 1.3s-.4 1.4-.9 1.1c-.5-.3-1.2.1-1.5 1-.3.8-1 1.2-1.6.9-.5-.3-1-.1-1 .4 0 .6-.7 1.1-1.6 1.1-1 0-1.4.6-1.1 1.4.4 1 .1 1.3-.9.9-.7-.3-1.4 0-1.4.7 0 .8-.8 1-2.1.7-1.2-.3-1.8-.3-1.5 0 .3.4.1 1.2-.5 1.9-1.4 1.7-.1 3.7 1.9 2.9.8-.3 1.9 0 2.4.7.5.8 1.1.9 1.6.3 1.1-1.6 3.4-1.7 4.3-.3.5.7.9.8.9.3 0-1.1 12.1-1.2 13.9-.1.6.4 1.1.2 1.1-.4 0-1.3 3.2-.9 4.2.5.5.6.8.6.8-.1s1.5-.9 3.8-.7c4.2.4 4.2.4 10.2 0 2.5-.1 4.9-.1 5.5.2.5.3 1.8.6 2.7.6 1.5.1 1.5-.1.5-1.3-1-1.3-.9-1.4.9-.4 1.2.6 2.4.8 2.8.5.3-.3.6-.1.6.7 0 .8.4.9 1.3.3 1.5-1.3 4.7-1.3 4.7-.1 0 .5.5.6 1.2.2 1.5-.9 16.9-1.1 17.4-.2.3.4 1.1.5 1.9.2.8-.4 1.2-1 .9-1.5-.3-.5.2-.6 1-.3.9.3 1.6 1.1 1.6 1.8 0 .6.5.4 1-.4.8-1.2 1-1.2 1-.1 0 1.1.3 1.1 1.5.1 1.1-.9 1.9-.9 2.8-.2.7.6 1.8.8 2.4.4.9-.6 9.8-.8 9.8-.2 0 .1 1 .3 2.2.4 1.9.2 2.1 0 1-1.2-1-1.3-.9-1.4.9-.4 1.2.6 2.4.8 2.8.5.3-.3.6-.1.6.7 0 .9.3 1 1.4.1 1.6-1.3 3.7-1.1 4.8.4.5.6.8.5.8-.4 0-1 .3-1.1 1.4-.2.9.7 1.7.8 2 .2.3-.5 1.6-.7 2.8-.3 1.6.4 1.9.2 1.4-.9-.4-.8-.1-.6.7.3 1 1.2 1.7 1.4 2.4.7s1.7-.8 2.4-.3c1.8 1.1 4.9 1.3 4.3.3-.2-.4.5-.7 1.6-.6 1.1.1 2 .5 2 1s.6.5 1.3-.2c1-.8 1.7-.7 2.7.2.9.9 1.1.9.6 0-.4-.8.1-1.1 1.4-1 1.1.1 2 .6 2 1.2s.3.7.8 0c1.1-1.6 4.5-1.9 3.6-.3-.4.7-.3.9.1.5 1.2-1 1.4-7.7.3-7.7-.5 0-.6-.4-.3-1s-.1-1-1-1-1.3-.4-1-1c.3-.5-.1-1-.9-1-.9 0-1.5-.4-1.3-.8.1-.4-3.4-4.4-7.8-8.9-4.4-4.4-8-8.7-8-9.4 0-.8-1-1.8-2.2-2.4-1.3-.5-2.3-1.4-2.3-1.8 0-1.3-13.7-14.7-15-14.7-.5 0-.9-.4-.8-.8.2-.4-2.2-3.3-5.3-6.5-3.1-3.1-5.4-5.8-5.1-6.1.3-.4-.2-.6-1.1-.6-1 0-1.9-1.1-2.3-2.6-.4-1.4-.9-2.2-1.3-1.6-.3.5-1.5 0-2.6-1.1s-1.5-1.7-.9-1.4c.6.3 1.1 0 1.1-.7 0-.8-.7-1.2-1.5-.8-1 .3-1.3.1-.8-.6.4-.7.1-1.2-.9-1.2-.9 0-1.3-.5-1-1 .3-.6.1-1-.5-1-1.7 0-4.2-2.8-3.5-4 .4-.6-.1-.7-1.1-.3-1.2.4-1.5.3-1-.5.4-.7.1-1.2-.9-1.2s-1.3-.5-.9-1.2c.5-.7.2-.9-.9-.5s-1.4.2-1-.9c.3-.8-.1-1.4-1.1-1.4s-1.6-.8-1.6-2.1c0-1.9-.2-2-1.7-.8-1.1 1-1.4 1-.9.1.4-.7.2-1.2-.4-1.2-.6 0-.9-.4-.6-.9 1.1-1.8-2.2-1.9-3.8-.2zM302.4 349.2c-.3.5-1.2.7-1.9.4-.7-.2-1.7 0-2.1.4-.5.5-2.1 1.1-3.4 1.4-1.4.2-2.6.5-2.7.7-.2.1-.7.3-1.3.4-.5.1-1.1.3-1.2.5-.2.1-1.2.3-2.3.5-1.1.2-2.1.9-2.3 1.5-.2.5-.8.8-1.2.5-1.1-.7-9 1.7-9 2.7 0 .4-.9.5-2 .3s-2 .1-2 .7c0 .5-.6.8-1.4.5-.7-.3-1.9 0-2.6.6-1 .9-1.1.9-.5-.3.5-.9-.1-.7-1.4.5-1.3 1.1-2.5 1.9-2.7 1.7-.7-.5-6.8.9-8 1.9-.6.5-2.5 1-4.3 1.2-1.8.2-4.1 1.1-5.1 2-1 .9-2 1.1-2.2.6-.2-.6-1.6-.5-3.6.4-1.8.7-2.9 1.7-2.5 2.1.4.4 0 .4-.9.1-1-.4-2.3-.3-3 .1-1.1.7-2.7 1.1-6.5 1.6-.7.1-1.3.6-1.3 1.1 0 .6-.3.7-.7.4-.3-.4-1.3-.1-2.1.6-1.2.9-1.4.9-.9 0 .6-.9-.3-.8-2.8.2-1.9.9-3.5 1.2-3.5.9 0-.4-.6-.2-1.2.4-1.5 1.1-7.7 2.7-9.5 2.3-.7-.1-1.3.3-1.3.9 0 .5-.3.9-.7.9-.5-.1-1 0-1.3.1-.5.2-2.9.7-5.2 1.3-.7.1-1.9.7-2.7 1.1-1.1.7-1.2.6-.6-.5.7-1.2.6-1.2-.7-.1-.9.7-2.9 1.5-4.5 1.8-1.5.3-2.9.9-3.1 1.3-.1.4-1.6.6-3.2.5-1.7-.1-3 .3-3 .8 0 .6-.7.8-1.5.4-.8-.3-1.5-.2-1.5.3s-1 .8-2.2.7c-1.3-.1-2.5.2-2.8.6-.3.4-2.1 1-3.9 1.3-1.9.3-4.2 1-5.3 1.6-1 .5-2.3.7-2.8.4-1-.6-2 .7-2.5 3.5-.2 1.1.1 2 .7 2 .5 0 .8.7.5 1.4-.4.9-.1 1.3.7 1 .7-.3 2.9 1.1 5 3.1 2.1 1.9 4.1 3.3 4.5 3.1.4-.3 1.4.4 2.1 1.5.8 1 2 1.9 2.6 1.9.7 0 2 .7 2.8 1.6.9.8 1.6 1.3 1.6.9s.7.1 1.6 1c.9.9 2.2 1.4 2.9 1.2.6-.3 1.7.4 2.4 1.4.6 1.1 1.6 1.7 2.1 1.4.5-.3 1.6.5 2.6 1.7 1.4 1.9 1.5 2 1 .4-.6-1.8-.5-1.8 1.1-.5 3.7 3 6.1 3.9 6.6 2.6.3-.7.6-.4.6.5.1 1.2.9 1.8 2.6 1.8 1.4 0 2.5.4 2.5.8s.8.8 1.8.9c2.9.2 4.7.8 5.3 1.7.4.4 2 .9 3.7 1.1 1.6.1 3.6.6 4.3 1.1.7.4 2.2.9 3.4 1.1 1.1.1 3.4.5 5 .8 1.7.3 4.5.6 6.3.7 1.7.1 3.2.4 3.2.7 0 .3 4.8.7 10.8.9 5.9.2 10.9.7 11 1.3.2.5.8.9 1.3.9.6 0 .7-.5.4-1-.3-.6.1-1 .9-1 .9 0 1.6.4 1.6 1 0 .5.5 1 1.1 1 .5 0 .7-.5.4-1-.7-1.1-.4-1.1 9.6-1.4 3.6-.2 7-.5 7.5-.8.5-.3 3-.9 5.7-1.2 2.6-.4 4.5-1.1 4.2-1.6-.3-.5-.1-1.1.5-1.5.6-.4.8-1.1.5-1.6-.4-.5-.1-.9.5-.9s1-.8.9-1.8c-.1-.9 0-1.9.1-2.2.1-.3.3-1.2.5-2s.7-2.6 1-4c.4-1.4.8-3.3.8-4.3.1-.9.5-1.7.9-1.7s.7-.8.7-1.8c.1-3.6.5-5.2 1.1-5.2.6 0 1-1.6 1.1-5.3 0-.9.5-1.7 1-1.7.6 0 .7-.5.4-1-.4-.6-.2-1.7.4-2.4.6-.7.9-2.2.6-3.4-.2-1.2 0-2.2.5-2.2.7 0 2.8-8.6 3.3-13.3.1-.9.4-1.7.7-1.7.3 0 .7-1.2.8-2.6.1-1.4.5-3.1.9-3.7.7-1.2.9-1.9 1.6-7.2.3-1.7.9-4.1 1.5-5.5.5-1.4.8-2.7.6-2.9-.8-.9-7.5-.8-8 .1zM132.2 397.6c-1.4 1-2.3 1.1-2.7.4-.5-.8-1.1-.8-1.9-.1-.7.6-2.1 1.2-3.2 1.4-1 .1-2.5.6-3.1 1-.7.5-1.7.6-2.2.2-.5-.3-1.2-.1-1.6.5-.4.6-1.1.7-1.7.4-.6-.4-1.3-.2-1.7.4-.4.6-2.3 1.2-4.4 1.4-2 .1-3.7.5-3.7.9 0 .5-.9.6-2 .4-1.1-.2-2.2.1-2.5.6-.4.5-1.1.6-1.7.3-.6-.4-1.3-.2-1.7.4-.3.5-2.2 1.1-4.1 1.3-1.9.2-4 .7-4.7 1.2-.7.5-1.7.6-2.2.3-.5-.4-1.2-.2-1.6.3-.3.6-1.2.8-2 .4-.8-.3-1.5 0-1.5.6s-1.7 1.1-3.8 1.1c-2.1 0-4.2.4-4.8.9-.5.5-2.7 1.2-4.9 1.4-2.2.2-5.3 1-6.8 1.6-3.5 1.4-4 1.4-3.1 0 .3-.6-.5-.4-1.8.5-1.4.9-2.8 1.3-3.1.9-.4-.3-.7-.2-.7.4 0 .6-.9.9-2.2.5-1.4-.3-1.9-.1-1.4.6.4.8.2 1-.8.6-.8-.3-2.4-.1-3.5.6-1.6.8-2.1.8-2.1-.2s-.2-1-.9 0c-.4.8-1.1 1.3-1.5 1.3-.3-.1-.7-.1-.8 0-1.1.3-4.7.9-6.6 1.1-2.6.3-4.7 2.2-3.8 3.7.3.5 3.4.9 6.8 1 3.5 0 7 .1 7.8.2.8.1 2.3-.2 3.3-.6 1.1-.4 1.7-.3 1.7.5 0 1 .3 1 1.5 0 1.1-.9 1.8-1 2.8-.1.8.6 1.7.8 2 .5.9-1 9.8-1.1 10.3-.2.3.5 1.1.5 1.7.1 1.9-1.1 5.7-1.2 5.7-.1 0 .6.6.6 1.5-.2 1.2-1 1.8-1 2.9-.1 1 .9 1.6.9 2.1.1s1.1-.8 1.9-.1c.7.6 1.6.8 1.9.4 1.2-1.1 5.7-1.2 5.7-.1 0 .7.5.6 1.5-.2.8-.6 2-.8 2.7-.4 1.7 1.1 4.8 1.3 4.2.3-.2-.4.5-.7 1.6-.6 1.1.1 2 .5 2 1s.6.5 1.3-.2c1-.8 1.7-.7 2.7.2.9.9 1.1.9.6 0-.4-.8.1-1.1 1.4-1 1.1.1 2 .5 2 1 0 .6.5.6 1.3 0 .9-.7 11.2-1 11.2-.3 0 .1 1 .3 2.2.4 1.9.2 2.1 0 1-1.2-1-1.3-.9-1.4.9-.4 1.2.6 2.4.8 2.8.5.3-.3.6-.1.6.6s.5.9 1.3.4c2-1.2 4.7-1.4 4.7-.2 0 .6.6.7 1.2.2 1.7-1 4.7-1 7.6-.1 1.4.5 2.1.4 1.7-.1-.3-.6.4-.9 1.5-.8 1.1.1 2 .5 2 1s.6.5 1.3-.2c1-.8 1.7-.7 2.7.2 1 .9 1.1.9.5-.1-.8-1.6 2.6-1.3 3.7.3.5.6.8.6.8-.1s1.2-1 2.8-.7c1.5.2 3.4.4 4.2.3.8 0 2.2-.1 3.2-.1.9 0 1.5-.7 1.3-1.7-.2-.9-.4-2.1-.4-2.5-.1-.5-.5-.5-1.1-.2-.5.3-1 .1-1-.5s-.4-.9-.8-.6c-.5.3-1.4-.4-2.2-1.4-.8-1-1.7-1.7-2.2-1.4-.4.3-.8.1-.8-.4s-.9-1.2-2.1-1.5c-1.4-.4-1.8-1-1.3-1.8.5-.9.2-1-1-.6-1.4.5-1.7.3-1.2-.8.3-.8.1-1.5-.4-1.5-.6 0-1 .5-1 1.1 0 .6-1.2-.2-2.7-1.8-1.6-1.6-3.6-3.2-4.5-3.6-1-.3-1.8-1.4-1.8-2.2 0-.9-.4-1.3-1-1-.5.3-1-.1-1-1s-.5-1.3-1-1c-.6.3-1.3-.1-1.6-.9-.3-.9-1.2-1.6-2-1.6s-1.4-.4-1.4-.9c0-1.7-2.8-2-4.8-.5z"/><path d="M251.8 434.7c.7.3 1.6.2 1.9-.1.4-.3-.2-.6-1.3-.5-1.1 0-1.4.3-.6.6z"/></svg>